<svg width="200" height="200" viewBox="0 0 200 200" xmlns="http://www.w3.org/2000/svg">
  <!-- Background circle -->
  <circle cx="100" cy="100" r="100" fill="#ffffff" stroke="#e91e63" stroke-width="2"/>
  
  <!-- Face outline with cross-hatching texture -->
  <ellipse cx="100" cy="90" rx="35" ry="40" fill="#e91e63"/>
  
  <!-- Hair with texture lines -->
  <path d="M 65 70 Q 100 50 135 70 Q 130 85 125 90 Q 100 75 75 90 Q 70 85 65 70" fill="#e91e63"/>
  <!-- Hair texture lines -->
  <path d="M 70 75 L 85 80" stroke="#c2185b" stroke-width="1" fill="none"/>
  <path d="M 75 80 L 90 85" stroke="#c2185b" stroke-width="1" fill="none"/>
  <path d="M 110 80 L 125 85" stroke="#c2185b" stroke-width="1" fill="none"/>
  <path d="M 115 75 L 130 80" stroke="#c2185b" stroke-width="1" fill="none"/>
  
  <!-- Eyes with lashes -->
  <ellipse cx="90" cy="85" rx="4" ry="6" fill="#ffffff"/>
  <ellipse cx="110" cy="85" rx="4" ry="6" fill="#ffffff"/>
  <circle cx="90" cy="85" r="2" fill="#e91e63"/>
  <circle cx="110" cy="85" r="2" fill="#e91e63"/>
  <!-- Eyelashes -->
  <path d="M 88 82 L 88 80" stroke="#e91e63" stroke-width="1" fill="none"/>
  <path d="M 90 81 L 90 79" stroke="#e91e63" stroke-width="1" fill="none"/>
  <path d="M 92 82 L 92 80" stroke="#e91e63" stroke-width="1" fill="none"/>
  <path d="M 108 82 L 108 80" stroke="#e91e63" stroke-width="1" fill="none"/>
  <path d="M 110 81 L 110 79" stroke="#e91e63" stroke-width="1" fill="none"/>
  <path d="M 112 82 L 112 80" stroke="#e91e63" stroke-width="1" fill="none"/>
  
  <!-- Eyebrows -->
  <path d="M 82 78 Q 90 75 98 78" stroke="#e91e63" stroke-width="2" fill="none"/>
  <path d="M 102 78 Q 110 75 118 78" stroke="#e91e63" stroke-width="2" fill="none"/>
  
  <!-- Nose with subtle shading -->
  <path d="M 100 90 Q 95 95 100 100 Q 105 95 100 90" stroke="#e91e63" stroke-width="1.5" fill="none"/>
  <!-- Nose shading lines -->
  <path d="M 97 92 L 97 98" stroke="#c2185b" stroke-width="0.5" fill="none"/>
  <path d="M 103 92 L 103 98" stroke="#c2185b" stroke-width="0.5" fill="none"/>
  
  <!-- Smiling mouth -->
  <path d="M 90 105 Q 100 110 110 105" stroke="#e91e63" stroke-width="2" fill="none"/>
  <!-- Smile lines -->
  <path d="M 85 100 Q 90 102 95 100" stroke="#c2185b" stroke-width="1" fill="none"/>
  <path d="M 105 100 Q 110 102 115 100" stroke="#c2185b" stroke-width="1" fill="none"/>
  
  <!-- Cheek shading -->
  <path d="M 75 95 Q 80 100 85 95" stroke="#c2185b" stroke-width="1" fill="none"/>
  <path d="M 115 95 Q 120 100 125 95" stroke="#c2185b" stroke-width="1" fill="none"/>
  
  <!-- Neck and shoulders -->
  <rect x="85" y="130" width="30" height="40" fill="#e91e63"/>
  <path d="M 70 170 Q 100 160 130 170 L 130 200 L 70 200 Z" fill="#e91e63"/>
  
  <!-- V-neck top -->
  <path d="M 90 130 L 100 150 L 110 130" stroke="#ffffff" stroke-width="2" fill="none"/>
</svg>